<svg xmlns="http://www.w3.org/2000/svg" width="30" height="30" viewBox="0 0 30 30">
  <defs>
    <style>
      .cls-1 {
        fill: #999;
        fill-rule: evenodd;
      }
    </style>
  </defs>
  <path id="linkedin" class="cls-1" d="M1270,4228.5a15,15,0,1,0,15,15A15.005,15.005,0,0,0,1270,4228.5Zm-3.67,21.22h-3.04v-9.78h3.04v9.78Zm-1.54-10.98a1.519,1.519,0,1,1,1.64-1.52A1.515,1.515,0,0,1,1264.79,4238.74Zm12.63,10.98h-3.04v-5.42c0-1.26-.44-2.12-1.54-2.12a1.656,1.656,0,0,0-1.55,1.14,2.176,2.176,0,0,0-.11.76v5.64h-3.03v-6.66c0-1.22-.04-2.24-0.08-3.12h2.64l0.14,1.36h0.06a3.492,3.492,0,0,1,3.01-1.58c2,0,3.5,1.34,3.5,4.22v5.78Z" transform="translate(-1255 -4228.5)"/>
</svg>
